PathFileType  4	(X/Y/Z) C:\Users\wagnerel85475\Documents\Thesis\opencap-core\Data\3375ffbc-daeb-4a43-b4f7-ac9899cd4c71\MarkerData\PreAugmentation
DataRate	CameraRate	NumFrames	NumMarkers	Units	OrigDataRate	OrigDataStartFrame	OrigNumFrames
60.0	60.0	18	20	m	60.0	439	585
Frame#	Time	Neck			RShoulder			RElbow			RWrist			LShoulder			LElbow			LWrist			midHip			RHip			RKnee			RAnkle			LHip			LKnee			LAnkle			LBigToe			LSmallToe			LHeel			RBigToe			RSmallToe			RHeel			
		X1	Y1	Z1	X2	Y2	Z2	X3	Y3	Z3	X4	Y4	Z4	X5	Y5	Z5	X6	Y6	Z6	X7	Y7	Z7	X8	Y8	Z8	X9	Y9	Z9	X10	Y10	Z10	X11	Y11	Z11	X12	Y12	Z12	X13	Y13	Z13	X14	Y14	Z14	X15	Y15	Z15	X16	Y16	Z16	X17	Y17	Z17	X18	Y18	Z18	X19	Y19	Z19	X20	Y20	Z20	

439	7.3000000	1.4126300	0.6484300	-0.0767300	1.3901800	0.6318200	0.0980900	1.2874700	0.3956400	0.3221200	1.4435800	0.1583600	0.2799900	1.3816900	0.6351900	-0.2554800	1.3573000	0.3402000	-0.3903900	1.4809000	0.0896500	-0.4219000	0.9270500	0.4409500	-0.0824500	0.9546400	0.4314200	0.0504600	1.2893800	0.2494600	0.1163100	0.9508800	-0.1749900	0.1096300	0.9132000	0.4426800	-0.2169000	1.2465300	0.2632700	-0.3348100	1.0866600	-0.1062500	-0.2565900	1.2920000	-0.1517600	-0.2813300	1.2459600	-0.1610300	-0.3269700	1.0124000	-0.1413100	-0.2299800	1.0895800	-0.2402300	0.1945500	1.0610500	-0.2241200	0.2132000	0.8979100	-0.2110100	0.0904400
440	7.3166667	1.3999400	0.6749500	-0.0763700	1.3692600	0.6589200	0.0963900	1.2846700	0.4364400	0.3228200	1.4035600	0.1799600	0.3006600	1.3960100	0.6656800	-0.2492300	1.3574000	0.3929100	-0.3796800	1.4691800	0.1554000	-0.4001300	0.9440800	0.4598000	-0.0838500	0.9653000	0.4594200	0.0441300	1.2890800	0.2507100	0.1167300	0.9408500	-0.1840000	0.1104400	0.9287400	0.4673600	-0.2173200	1.2525500	0.2678400	-0.3389800	1.0196800	-0.1002100	-0.2792900	1.2595500	-0.1525500	-0.2946200	1.2038900	-0.1673800	-0.3458300	0.8936700	-0.1626400	-0.2772100	1.1007100	-0.2359100	0.1876700	1.0652300	-0.2243600	0.2114800	0.8997400	-0.2205200	0.0914500
441	7.3333333	1.4191700	0.7109100	-0.0736800	1.3980400	0.7006700	0.1086800	1.2610500	0.4734200	0.3159500	1.3740300	0.2077100	0.3143500	1.4061100	0.7026800	-0.2483000	1.3448600	0.4368600	-0.3571000	1.4811000	0.2211000	-0.3840100	0.9353000	0.4847600	-0.0788100	0.9718300	0.4762900	0.0490300	1.2890300	0.2472200	0.1168700	0.9457200	-0.1849900	0.1156300	0.9289700	0.4928600	-0.2094400	1.2594600	0.2857200	-0.3336600	0.9760400	-0.0968500	-0.2989300	1.1634900	-0.1802800	-0.3426900	1.0775200	-0.2120300	-0.4120600	0.8853500	-0.1589400	-0.2808800	1.0897000	-0.2398800	0.1945400	1.0540500	-0.2269000	0.2173600	0.8928500	-0.2263800	0.0960100
442	7.3500000	1.4006800	0.7440000	-0.0616200	1.3974800	0.7325300	0.1165800	1.2314700	0.5032000	0.3035600	1.3243200	0.2392900	0.3341000	1.4018100	0.7381000	-0.2447300	1.3597000	0.4950600	-0.3429600	1.4838700	0.2971000	-0.3733400	0.9515800	0.4986500	-0.0787600	0.9692900	0.4930700	0.0497000	1.2892400	0.2535300	0.1160700	0.9392000	-0.1800200	0.1094100	0.9531900	0.5051300	-0.2136500	1.2456500	0.2877500	-0.3341600	0.9598000	-0.1093900	-0.3065800	1.0985300	-0.2197600	-0.3786200	1.0542100	-0.2226800	-0.4177200	0.8641200	-0.1714600	-0.2907900	1.1005300	-0.2356900	0.1876600	1.0650300	-0.2190200	0.2101800	0.8823600	-0.2236600	0.0913800
443	7.3666667	1.4008500	0.7738800	-0.0617400	1.4001400	0.7614700	0.1158100	1.2175600	0.5515000	0.3058000	1.2714700	0.2709100	0.3485100	1.4125300	0.7831000	-0.2373200	1.3630200	0.5716800	-0.3344400	1.4360500	0.3473800	-0.3751300	0.9347800	0.5335500	-0.0794400	0.9650100	0.5251500	0.0529400	1.2898700	0.2587300	0.1148100	0.9351500	-0.1815900	0.1109100	0.9206600	0.5443900	-0.2133000	1.2456500	0.2883200	-0.3341000	0.9164100	-0.1338400	-0.3298300	1.0954700	-0.2310500	-0.3823200	1.0535600	-0.2268000	-0.4191600	0.8254300	-0.1901500	-0.3096400	1.0968200	-0.2346600	0.1896200	1.0615900	-0.2187700	0.2118700	0.8904000	-0.2214100	0.0944100
444	7.3833333	1.3946900	0.8103700	-0.0584300	1.3985300	0.8089900	0.1167300	1.1954500	0.5869200	0.2969200	1.2433400	0.3143000	0.3520200	1.4067700	0.8103000	-0.2415900	1.2368300	0.5232000	-0.3892900	1.2147800	0.2322200	-0.4809700	0.9513300	0.5472200	-0.0709500	0.9704800	0.5387200	0.0570700	1.2819100	0.2609400	0.1127800	0.9489900	-0.1724400	0.1129400	0.9356300	0.5523500	-0.1985600	1.2461900	0.2683700	-0.3279100	0.9168700	-0.1496700	-0.3307800	1.0985500	-0.2261400	-0.3798900	1.0541800	-0.2261700	-0.4182500	0.8401000	-0.1960300	-0.3114600	1.1070000	-0.2288600	0.1843300	1.0653600	-0.2215900	0.2109000	0.8988100	-0.2109000	0.0903000
445	7.4000000	1.3879000	0.8524600	-0.0542900	1.3995700	0.8454600	0.1165300	1.1791300	0.6245400	0.2850300	1.2050800	0.3588200	0.3547000	1.3979800	0.8605700	-0.2375100	1.2200600	0.5808600	-0.3750500	1.1549000	0.2736800	-0.4723600	0.9596000	0.5774500	-0.0678700	0.9697500	0.5701000	0.0581100	1.2822800	0.2633800	0.1120800	0.9446900	-0.1740300	0.1144600	0.9628200	0.5871800	-0.1939600	1.2247600	0.2754700	-0.3163800	0.9162600	-0.1435200	-0.3318000	1.0955000	-0.2278200	-0.3815500	1.0537500	-0.2265200	-0.4190900	0.8296900	-0.2014100	-0.3173200	1.1026600	-0.2301200	0.1867700	1.0610800	-0.2264300	0.2137700	0.8904600	-0.2143400	0.0944500
446	7.4166667	1.3813500	0.8996300	-0.0507500	1.3917400	0.9004100	0.1216600	1.1740500	0.6819900	0.2811700	1.1541700	0.4030900	0.3566600	1.3859300	0.8859900	-0.2458200	1.1913100	0.6246500	-0.3760200	1.0967800	0.3457700	-0.4887700	0.9692700	0.5874800	-0.0657700	0.9812400	0.5909900	0.0595000	1.2739600	0.2658200	0.1099000	0.9552100	-0.1668300	0.1082700	0.9747900	0.5901300	-0.1966300	1.2244300	0.2714400	-0.3170300	0.9095500	-0.1490200	-0.3351600	1.0982400	-0.2227700	-0.3793700	1.0541300	-0.2232300	-0.4190200	0.8331700	-0.2001000	-0.3152200	1.1002500	-0.2314800	0.1884600	1.0653200	-0.2213800	0.2109900	0.8982900	-0.2067400	0.0891700
447	7.4333333	1.3826500	0.9369000	-0.0509000	1.3865800	0.9438300	0.1255500	1.1709600	0.7326900	0.2751800	1.1311500	0.4690300	0.3564600	1.3906800	0.9289400	-0.2423900	1.1889000	0.6780400	-0.3701400	1.0373900	0.4079900	-0.4736600	0.9764200	0.6108700	-0.0691300	0.9897500	0.6050400	0.0557400	1.2733400	0.2682000	0.1103100	0.9511200	-0.1684100	0.1096500	0.9919500	0.6152500	-0.1955900	1.2177100	0.2828900	-0.3133000	0.9163100	-0.1433800	-0.3317500	1.0952900	-0.2243800	-0.3810400	1.0535500	-0.2236400	-0.4198400	0.8376300	-0.1984600	-0.3137200	1.0963800	-0.2364000	0.1902800	1.0613200	-0.2263100	0.2139400	0.9056900	-0.2106400	0.0920600
448	7.4500000	1.3870500	0.9975700	-0.0467200	1.3801000	0.9991800	0.1371800	1.1577900	0.7947700	0.2736000	1.0702900	0.5156600	0.3463000	1.3975300	0.9873300	-0.2386700	1.1665100	0.7457800	-0.3661300	1.0204900	0.4932200	-0.4659800	0.9859500	0.6350600	-0.0664600	0.9989300	0.6375400	0.0585100	1.2580600	0.2647000	0.1047200	0.9538600	-0.1680500	0.1069600	0.9904700	0.6414700	-0.1969300	1.2180300	0.2918800	-0.3079500	0.9171900	-0.1427800	-0.3308600	1.0981300	-0.2228700	-0.3793100	1.0461500	-0.2265100	-0.4157100	0.8412300	-0.1929700	-0.3122900	1.1003700	-0.2350500	0.1878200	1.0653000	-0.2241200	0.2116400	0.9066300	-0.2079700	0.0914100
449	7.4666667	1.3809500	1.0501100	-0.0429000	1.3734800	1.0511600	0.1416800	1.1494400	0.8582400	0.2717600	1.0616200	0.5753200	0.3438800	1.3829000	1.0448500	-0.2314600	1.1212100	0.8075500	-0.3613800	0.9916500	0.5654800	-0.4497400	1.0077200	0.6648900	-0.0703800	1.0051700	0.6553200	0.0550000	1.2441200	0.2662800	0.1055500	0.9424800	-0.1785400	0.1067200	1.0149600	0.6739800	-0.1998900	1.2105800	0.2943300	-0.3037100	0.9163300	-0.1366200	-0.3318100	1.0951400	-0.2245000	-0.3810100	1.0456400	-0.2268000	-0.4165100	0.8297500	-0.1946800	-0.3175000	1.0894400	-0.2390300	0.1944100	1.0542400	-0.2264700	0.2175200	0.8994200	-0.2205800	0.0906500
450	7.4833333	1.3730600	1.1034700	-0.0462500	1.3601900	1.1000300	0.1426100	1.1268600	0.9134000	0.2601200	1.0152800	0.6368300	0.3230500	1.3952700	1.1088900	-0.2382800	1.1185100	0.8865000	-0.3526300	0.9648100	0.6342300	-0.4370400	1.0492700	0.7027400	-0.0687500	1.0375900	0.7001100	0.0603700	1.2440000	0.2857700	0.1057100	0.9479100	-0.1731000	0.1058200	1.0532500	0.7065900	-0.1900700	1.2027300	0.2982700	-0.3003600	0.9098300	-0.1382300	-0.3360100	1.0908000	-0.2257900	-0.3759100	1.0460500	-0.2201600	-0.4156600	0.8336000	-0.1962900	-0.3162300	1.0932900	-0.2340900	0.1928200	1.0582600	-0.2241200	0.2152100	0.8998600	-0.2175800	0.0900200
451	7.5000000	1.3724500	1.1617500	-0.0457300	1.3547700	1.1627400	0.1468300	1.1274700	0.9721500	0.2609700	1.0212200	0.7213100	0.3094200	1.3923800	1.1632900	-0.2377900	1.1166900	0.9547900	-0.3461000	0.9545600	0.7211400	-0.4208900	1.0713200	0.7247500	-0.0731500	1.0684200	0.7220000	0.0510800	1.2365700	0.2948200	0.1017700	0.9523700	-0.1643600	0.1100900	1.0690700	0.7366800	-0.1897000	1.1666800	0.3078000	-0.2885900	0.9093800	-0.1413400	-0.3375200	1.1022600	-0.2216600	-0.3773600	1.0527600	-0.2207800	-0.4121400	0.8306100	-0.2005200	-0.3189200	1.0960800	-0.2327900	0.1909200	1.0613000	-0.2207900	0.2124700	0.9056200	-0.2065200	0.0854900
452	7.5166667	1.3731300	1.2216100	-0.0457100	1.3595500	1.2066800	0.1465700	1.1795500	0.9728000	0.2525800	1.0168300	0.7504000	0.2919400	1.3745600	1.2262200	-0.2275500	1.1214800	1.0351400	-0.3409800	0.9352100	0.7836700	-0.3962300	1.0796800	0.7622100	-0.0697200	1.0978800	0.7648800	0.0492500	1.2289800	0.3031600	0.0985300	0.9456900	-0.1590300	0.1045100	1.0757600	0.7675500	-0.1940700	1.1539800	0.3231100	-0.2837900	0.9257400	-0.1284800	-0.3365200	1.1061600	-0.2229800	-0.3832000	1.0690000	-0.2202200	-0.4179500	0.8427000	-0.1853200	-0.3212100	1.0997300	-0.2279800	0.1893900	1.0652900	-0.2214400	0.2109500	0.9062100	-0.1986700	0.0857800
453	7.5333333	1.3595500	1.2795400	-0.0379100	1.3587900	1.2673100	0.1539600	1.1468300	0.9805700	0.2217000	1.0739400	0.7653800	0.2749000	1.3653700	1.2879700	-0.2304400	1.1124100	1.0957500	-0.3380800	0.9382500	0.8522100	-0.3857900	1.0949100	0.8028600	-0.0627300	1.1018200	0.7928000	0.0565000	1.2120000	0.3341000	0.0935000	0.9566800	-0.1454400	0.1042500	1.0909900	0.8106600	-0.1863400	1.1426200	0.3547700	-0.2769400	0.9406900	-0.1104600	-0.3360000	1.1033600	-0.2246900	-0.3850700	1.0765700	-0.2200800	-0.4215200	0.8641400	-0.1540200	-0.3326300	1.0965200	-0.2329500	0.1907800	1.0683800	-0.2208800	0.2089800	0.9127000	-0.1939500	0.0883100
454	7.5500000	1.3589700	1.3368900	-0.0307600	1.3699300	1.3305900	0.1600800	1.1361300	1.1057500	0.2348800	0.9689200	0.8756200	0.2777300	1.3646600	1.3525700	-0.2236400	1.1117500	1.1524400	-0.3301000	0.9364400	0.9206600	-0.3757700	1.1263300	0.8295100	-0.0562900	1.1371700	0.8256500	0.0586000	1.1675500	0.3386800	0.0811400	0.9620900	-0.1340800	0.1093300	1.1210000	0.8415300	-0.1793000	1.1072200	0.3702800	-0.2610700	0.9895000	-0.0662900	-0.3325700	1.1057200	-0.2196500	-0.3827200	1.0854600	-0.2136000	-0.4234700	0.9084900	-0.1180500	-0.3348700	1.0998800	-0.2279300	0.1894800	1.0802700	-0.2144600	0.2108600	0.9148800	-0.1681400	0.0891400
455	7.5666667	1.3447100	1.3928900	-0.0298900	1.3481800	1.3885900	0.1581400	1.1438900	1.1618600	0.2341700	0.9705800	0.9167600	0.2767500	1.3551100	1.4075800	-0.2198100	1.1248000	1.2061100	-0.3304600	0.9469800	0.9949800	-0.3748900	1.1638200	0.8835400	-0.0543900	1.1695100	0.8768200	0.0641700	1.1591700	0.3840100	0.0778400	0.9756000	-0.1083800	0.1169100	1.1662700	0.8891300	-0.1802900	1.0895700	0.4225600	-0.2522500	1.0125400	-0.0403800	-0.3462100	1.0879000	-0.2308700	-0.3782000	1.0926400	-0.2104100	-0.4273300	0.9465100	-0.1008800	-0.3335100	1.0960100	-0.2262900	0.1907700	1.0702200	-0.2108100	0.2152800	0.9291200	-0.1445200	0.0872400
456	7.5833333	1.3567600	1.4467400	-0.0304700	1.3609700	1.4428300	0.1571500	1.1566900	1.2198400	0.2336700	0.9697300	0.9670600	0.2788500	1.3556500	1.4595000	-0.2199500	1.1018800	1.2450300	-0.3190500	0.9421000	1.0115400	-0.3713800	1.1930800	0.9115900	-0.0626000	1.2010900	0.9044200	0.0610500	1.1551600	0.4317700	0.0725100	0.9958200	-0.0753400	0.1223500	1.1869100	0.9248100	-0.1841200	1.0805500	0.4597200	-0.2477400	1.0279900	0.0150200	-0.3438800	1.1130700	-0.2027700	-0.3861600	1.0929000	-0.1881600	-0.4289100	1.0107500	-0.0341100	-0.3404900	1.0925600	-0.2336400	0.1929400	1.0975000	-0.2113200	0.2155900	0.9503900	-0.1221400	0.1023600
